<svg width="24" height="24" viewBox="0 0 24 24" fill="none" xmlns="http://www.w3.org/2000/svg">
<path d="M21.354 2.64604C20.989 2.28071 20.5556 1.9909 20.0786 1.79316C19.6015 1.59543 19.0902 1.49365 18.5737 1.49365C18.0573 1.49365 17.546 1.59543 17.0689 1.79316C16.5919 1.9909 16.1585 2.28071 15.7935 2.64604L3.9855 14.454C3.42499 15.0154 3.02513 15.7167 2.8275 16.485L1.5225 21.564C1.49014 21.6904 1.4913 21.823 1.52586 21.9488C1.56043 22.0746 1.6272 22.1892 1.7196 22.2813C1.81199 22.3734 1.9268 22.4398 2.0527 22.4739C2.1786 22.5081 2.31123 22.5088 2.4375 22.476L7.515 21.1725C8.28357 20.9756 8.98506 20.5756 9.546 20.0145L21.354 8.20654C21.7193 7.84156 22.0091 7.40815 22.2069 6.9311C22.4046 6.45405 22.5064 5.9427 22.5064 5.42629C22.5064 4.90988 22.4046 4.39854 22.2069 3.92148C22.0091 3.44443 21.7193 3.01103 21.354 2.64604ZM16.854 3.70654C17.3101 3.25044 17.9287 2.9942 18.5737 2.9942C19.2188 2.9942 19.8374 3.25044 20.2935 3.70654C20.7496 4.16265 21.0058 4.78126 21.0058 5.42629C21.0058 6.07132 20.7496 6.68994 20.2935 7.14604L19.125 8.31454L15.6855 4.87504L16.854 3.70654ZM14.625 5.93554L18.0645 9.37504L8.4855 18.954C8.11424 19.325 7.65002 19.5892 7.1415 19.719L3.291 20.709L4.281 16.8585C4.41011 16.3497 4.67445 15.8853 5.046 15.5145L14.625 5.93554Z" fill="#002D75"/>
</svg>
